<?xml version="1.0" standalone="no"?>
<!DOCTYPE svg PUBLIC "-//W3C//DTD SVG 20010904//EN"
 "http://www.w3.org/TR/2001/REC-SVG-20010904/DTD/svg10.dtd">
<svg version="1.0" xmlns="http://www.w3.org/2000/svg"
 width="700.000000pt" height="700.000000pt" viewBox="0 0 700.000000 700.000000"
 preserveAspectRatio="xMidYMid meet">
<metadata>
Created by potrace 1.11, written by Peter Selinger 2001-2013
</metadata>
<g transform="translate(0.000000,700.000000) scale(0.100000,-0.100000)"
fill="#000000" stroke="none">
<path d="M4288 6685 c-2 -2 -29 -6 -61 -9 -32 -4 -68 -11 -80 -15 -195 -75
-268 -136 -398 -334 -45 -67 -82 -123 -84 -125 -1 -1 -15 3 -31 9 -17 7 -99
12 -199 13 -143 1 -170 4 -171 16 -7 149 -109 308 -237 366 l-62 28 -740 1
-740 0 -57 -28 c-95 -46 -162 -129 -200 -247 -21 -64 -21 -77 -22 -1072 -1
-553 -5 -1010 -9 -1015 -5 -4 -137 -8 -295 -9 -158 0 -297 -4 -309 -8 -12 -4
-31 -9 -44 -11 -12 -3 -59 -23 -105 -46 -138 -68 -265 -207 -343 -374 -111
-238 -128 -541 -43 -744 24 -55 171 -294 513 -831 26 -41 68 -106 92 -145 25
-38 190 -299 367 -580 177 -280 337 -532 355 -560 17 -27 67 -106 111 -175 88
-139 176 -239 268 -303 210 -148 437 -177 651 -82 49 22 63 25 79 15 273 -171
572 -127 733 107 36 53 37 53 57 34 37 -33 137 -84 192 -97 34 -8 146 -13 311
-14 l257 -1 34 -34 c68 -67 48 -66 853 -63 l724 3 56 36 c57 37 82 65 114 129
17 33 18 97 19 1115 l1 1080 275 2 c374 2 424 6 490 34 221 93 376 363 385
669 4 136 -15 226 -68 323 -27 50 -357 574 -452 717 -13 19 -82 130 -155 245
-73 116 -147 233 -165 260 -18 28 -119 187 -225 355 -106 168 -212 334 -235
370 -23 36 -77 121 -120 190 -105 166 -144 218 -202 269 -92 82 -214 137 -325
148 l-68 6 -41 56 c-148 200 -350 312 -587 325 -34 1 -63 2 -64 1z m132 -320
c58 -10 154 -63 203 -112 26 -25 47 -51 47 -57 0 -5 -17 -28 -38 -51 -21 -22
-72 -92 -112 -155 -41 -63 -111 -171 -155 -240 -45 -69 -103 -159 -130 -200
-27 -41 -76 -118 -110 -170 -34 -52 -121 -187 -195 -300 -73 -113 -136 -209
-141 -215 -6 -6 -8 183 -7 475 l3 485 41 60 c23 33 89 132 147 221 64 97 121
174 145 193 86 68 179 88 302 66z m-1502 -52 c17 -17 44 -83 35 -84 -5 -1
-181 -3 -393 -4 -348 -1 -389 -3 -423 -20 -48 -23 -73 -55 -92 -118 -13 -44
-15 -202 -15 -1143 l0 -1092 -357 -1 c-385 -1 -377 -1 -441 -20 -162 -46 -314
-223 -378 -436 -39 -132 -47 -265 -23 -385 16 -81 65 -175 187 -365 61 -93
140 -217 177 -275 36 -58 105 -166 153 -240 179 -278 767 -1200 777 -1217 6
-10 37 -58 68 -107 45 -69 55 -91 45 -98 -20 -14 -168 -1 -219 19 -59 23 -136
76 -172 119 -30 36 -757 1172 -757 1184 0 4 -9 15 -20 25 -11 10 -20 21 -20
25 0 4 -143 232 -318 506 -397 623 -386 606 -406 684 -15 61 -16 195 -3 255
47 209 163 373 292 416 31 10 140 13 462 14 232 0 425 4 429 8 5 4 8 524 9
1155 0 1051 2 1150 17 1178 l17 30 678 0 c534 0 681 -3 691 -13z m1070 -3750
c-1 -165 -7 -149 -22 65 -6 79 -5 92 8 92 14 0 16 -21 14 -157z m1 -1339 l1
-465 -229 3 c-215 3 -231 4 -258 24 -23 17 -28 29 -29 65 -2 53 -5 48 120 239
56 85 167 255 246 377 80 123 146 223 147 223 1 0 2 -209 2 -466z"/>
</g>
</svg>
